<svg width="795" height="569" viewBox="0 0 795 569" fill="none" xmlns="http://www.w3.org/2000/svg">
<path d="M398.004 64.9632L330.998 130.215L338.06 135.994C341.977 139.173 353.135 148.305 362.928 156.281L380.733 170.729L425.068 127.556L469.462 84.3826L507.269 121.199L545.134 158.014L581.635 154.604C601.695 152.697 618.61 151.079 619.204 151.021C619.916 150.906 596.176 127.44 542.938 75.5398C500.384 34.158 465.486 0.174118 465.308 0.000732422C465.13 -0.114853 434.802 29.1298 398.004 64.9632Z" fill="#356BB3"/>
<path d="M269.748 129.116C257.166 143.218 183.571 227.542 95.9698 328.28C79.6484 347.006 65.5823 363.131 64.7514 364.114C63.0302 366.137 111.52 319.206 208.024 225.635C279.541 156.28 284.942 151.136 285.832 151.136C286.129 151.136 287.731 152.639 289.393 154.431C291.055 156.28 309.335 174.023 330.048 193.847C350.761 213.729 376.223 238.177 386.669 248.233C408.331 269.04 474.092 331.979 489.642 346.775C500.265 356.947 533.027 387.174 534.867 388.619C535.816 389.313 536.647 388.735 542.879 382.84C556.352 370.182 575.462 352.439 583.415 345.272C598.194 331.979 613.803 317.993 636.831 297.417C649.413 286.147 660.571 276.149 661.639 275.166L663.598 273.432L691.137 300.249C713.749 322.27 718.735 326.836 718.735 325.68C718.735 324.87 722.474 286.667 726.984 240.72C731.495 194.772 735.175 157.147 735.056 157.031C734.997 156.974 732.326 157.147 729.062 157.494C721.227 158.303 561.931 173.099 561.159 173.099C560.862 173.099 572.97 185.178 588.104 199.916L615.583 226.675L597.303 245.979C580.685 263.549 568.756 276.206 545.728 300.538C541.277 305.278 536.766 310.364 535.757 311.809C534.748 313.254 533.917 314.467 533.798 314.583C533.264 315.334 526.854 310.653 512.788 299.267C503.826 291.985 456.405 253.55 407.441 213.845C333.669 154.026 310.047 134.78 285.179 114.089C284.052 113.164 283.636 113.569 269.748 129.116Z" fill="#293148"/>
<path d="M179.001 278.23L72.8824 381.568L95.7324 403.82L118.523 426.129L205.412 341.516L292.301 256.903L379.25 341.574L466.198 426.245L486.733 406.189L507.328 386.077L498.366 377.985C487.208 367.871 464.002 345.735 390.526 275.109C314.083 201.65 286.01 174.833 285.417 174.833C285.298 174.833 237.402 221.359 179.001 278.23Z" fill="#356BB3"/>
<path d="M0 504.558V512.938H12.4636H24.9272V540.969V569H36.7973H48.6674V540.969V512.938L61.0123 512.822L73.2979 512.649L73.4759 504.384L73.654 496.177H36.7973H0V504.558Z" fill="#293148"/>
<path d="M84.2778 532.589V569H96.1479H108.018V555.36V541.72L116.505 541.952C125.586 542.183 128.257 542.876 129.978 545.419C130.571 546.402 130.927 549.523 131.165 556.574C131.402 562.411 131.877 566.919 132.292 567.728C133.005 569 133.183 569 144.875 569C156.448 569 156.745 568.942 156.389 567.844C156.211 567.208 155.795 561.949 155.558 556.169C155.142 547.038 154.905 545.188 153.718 542.53C152.412 539.524 149.504 536.519 146.833 535.363C144.934 534.496 145.053 534.207 147.724 532.993C158.288 528.254 160.899 513.169 152.709 504.269C151.106 502.535 148.495 500.57 146.418 499.587C140.067 496.408 137.515 496.177 109.68 496.177H84.2778V532.589ZM128.731 512.707C131.758 513.863 133.064 515.886 133.123 519.238C133.183 525.422 130.453 526.751 117.395 526.809H108.018V519.296V511.782H117.217C124.221 511.782 126.951 512.013 128.731 512.707Z" fill="#293148"/>
<path d="M179.535 529.814C172.413 548.367 166.063 564.723 165.469 566.226L164.401 569H176.508H188.616L190.99 562.18L193.305 555.418H208.38H223.455L225.888 562.065L228.381 568.711L241.26 568.884L254.139 569L253.783 567.728C253.605 566.977 246.957 550.679 239.004 531.433L224.464 496.466L208.558 496.293L192.592 496.177L179.535 529.814ZM210.041 516.521C210.991 519.469 213.068 525.595 214.73 530.103L217.698 538.368H208.202C200.189 538.368 198.765 538.253 199.002 537.559C199.833 535.478 206.54 515.019 206.54 514.614C206.54 513.863 207.667 511.204 207.964 511.204C208.142 511.204 209.032 513.632 210.041 516.521Z" fill="#293148"/>
<path d="M262.863 530.508C262.804 549.466 262.804 565.591 262.804 566.4C262.804 567.209 262.804 568.134 262.863 568.48C262.923 568.943 269.273 569.058 285.357 568.885C310.106 568.596 312.599 568.249 320.73 564.377C336.636 556.748 344.292 539.293 339.663 521.319C337.526 512.881 330.404 504.443 322.273 500.628C313.608 496.64 313.311 496.582 286.841 496.351L262.923 496.12L262.863 530.508ZM304.231 513.228C305.833 513.69 308.148 514.904 309.394 515.886C317.941 522.764 317.525 542.646 308.741 549.177C305.299 551.72 302.45 552.355 294.082 552.471L286.96 552.529L286.782 532.416L286.663 512.361H293.963C298.711 512.361 302.331 512.65 304.231 513.228Z" fill="#293148"/>
<path d="M354.441 532.415L354.619 568.711L387.381 568.884L420.142 569L420.498 567.151C420.676 566.11 421.329 562.296 421.923 558.77L422.932 552.239L400.675 552.124L378.359 551.95V545.882V539.813L398.42 539.64L418.421 539.524V531.433V523.341L398.42 523.226L378.359 523.052L378.181 517.966L378.003 512.938H399.132H420.201V504.558V496.177H387.262H354.322L354.441 532.415Z" fill="#293148"/>
<path d="M435.039 532.3V568.422H446.909H458.779V555.418V542.414H478.068H497.357V534.322V526.231H478.068H458.779V519.295V512.36H479.255H499.731V504.269V496.177H467.385H435.039V532.3Z" fill="#356BB3"/>
<path d="M511.601 532.3V568.422H542.464C559.438 568.422 573.326 568.248 573.326 567.96C573.326 567.728 573.86 564.55 574.513 560.908C575.166 557.267 575.7 553.8 575.7 553.222C575.7 552.297 574.335 552.239 555.817 552.239H535.935V524.208V496.177H523.768H511.601V532.3Z" fill="#356BB3"/>
<path d="M609.47 497.738C609.114 498.662 604.366 510.915 598.847 525.075C593.386 539.235 587.392 554.609 585.552 559.29C583.712 563.972 582.229 567.96 582.229 568.133C582.229 568.306 587.629 568.364 594.217 568.306L606.147 568.133L608.343 561.775L610.539 555.418L625.614 555.244L640.748 555.129L643.122 561.602L645.555 568.133L658.494 568.306C670.601 568.422 671.373 568.364 671.017 567.439C670.779 566.861 667.693 559.348 664.132 550.794C660.571 542.183 654.043 526.462 649.651 515.828L641.698 496.466L625.91 496.293L610.123 496.177L609.47 497.738ZM629.946 523.919C632.32 530.739 634.516 536.808 634.754 537.328C635.169 538.31 634.516 538.368 625.614 538.368C620.332 538.368 616.058 538.31 616.058 538.195C616.058 538.079 617.008 535.305 618.136 531.953C619.323 528.658 621.162 522.821 622.349 519.006C624.961 510.395 625.02 510.222 625.317 510.915C625.436 511.204 627.513 517.099 629.946 523.919Z" fill="#356BB3"/>
<path d="M680.157 532.3V568.422H692.027H703.897V532.3V496.177H692.027H680.157V532.3Z" fill="#356BB3"/>
<path d="M722.295 532.3V568.422H733.869H745.442V555.071V541.72L754.226 541.951C768.114 542.24 768.47 542.587 769.123 556.978C769.36 562.527 769.776 567.382 770.013 567.786C770.31 568.248 774.049 568.422 782.299 568.422H794.228L793.872 566.804C793.694 565.937 793.397 561.082 793.219 555.996C792.982 550.447 792.507 545.708 791.973 544.09C790.905 540.911 787.937 537.328 784.97 535.767C783.783 535.132 782.833 534.496 782.833 534.322C782.833 534.091 783.842 533.513 785.088 532.993C788.709 531.433 791.557 528.716 793.338 525.191C794.762 522.359 795 521.203 795 516.984C795 512.938 794.703 511.551 793.457 508.892C790.489 502.766 784.613 498.778 776.126 497.102C772.447 496.351 767.105 496.177 746.926 496.177H722.295V532.3ZM766.808 512.649C769.598 514.036 770.963 516.232 770.963 519.295C770.963 522.416 769.598 524.555 766.63 526.058C765.206 526.751 762.772 526.982 755.235 527.04L745.739 527.098L745.561 519.411L745.383 511.782H755.235C762.772 511.782 765.503 511.955 766.808 512.649Z" fill="#356BB3"/>
</svg>
