<svg width="2721" height="450" viewBox="0 0 2721 450" fill="none" xmlns="http://www.w3.org/2000/svg">
<g clip-path="url(#clip0_366_350)">
<mask id="path-1-outside-1_366_350" maskUnits="userSpaceOnUse" x="0.5" y="0" width="650" height="450" fill="black">
<rect fill="white" x="0.5" width="650" height="450"/>
<path fill-rule="evenodd" clip-rule="evenodd" d="M180.5 390C114.226 390 60.5 336.274 60.5 270C60.5 203.726 114.226 150 180.5 150C246.774 150 300.5 203.726 300.5 270C300.5 286.569 313.931 300 330.5 300C347.069 300 360.5 286.569 360.5 270C360.5 222.261 341.536 176.477 307.779 142.721C288.063 123.004 264.243 108.334 238.327 99.5414C267.159 74.888 304.591 60 345.5 60C436.627 60 510.5 133.873 510.5 225C510.5 226.673 510.475 228.339 510.426 230L510.5 230C554.683 230 590.5 265.817 590.5 310C590.5 354.183 554.683 390 510.5 390C510.467 390 510.433 390 510.4 390L345.5 390L180.5 390Z"/>
</mask>
<path d="M180.5 390L180.5 330H180.5V390ZM60.5 270L120.5 270V270H60.5ZM307.779 142.721L350.206 100.294L350.206 100.294L307.779 142.721ZM238.327 99.5414L199.334 53.9392L119.178 122.477L219.05 156.36L238.327 99.5414ZM510.426 230L450.452 228.215L448.612 290.026L510.45 290L510.426 230ZM510.5 230V170H510.488L510.475 170L510.5 230ZM510.4 390L510.4 450H510.4V390ZM345.5 390L345.5 330L345.5 390ZM180.5 330C147.363 330 120.5 303.137 120.5 270L0.5 270C0.499996 369.411 81.0888 450 180.5 450V330ZM120.5 270C120.5 236.863 147.363 210 180.5 210V90C81.0888 90 0.5 170.589 0.5 270H120.5ZM180.5 210C213.637 210 240.5 236.863 240.5 270H360.5C360.5 170.589 279.911 90 180.5 90V210ZM240.5 270C240.5 319.706 280.794 360 330.5 360V240C347.069 240 360.5 253.431 360.5 270H240.5ZM330.5 360C380.206 360 420.5 319.706 420.5 270H300.5C300.5 253.431 313.931 240 330.5 240V360ZM420.5 270C420.5 206.348 395.214 145.303 350.206 100.294L265.353 185.147C287.857 207.652 300.5 238.174 300.5 270H420.5ZM350.206 100.294C323.916 74.0047 292.153 54.444 257.603 42.7223L219.05 156.36C236.332 162.224 252.209 172.003 265.353 185.147L350.206 100.294ZM277.319 145.144C295.695 129.431 319.42 120 345.5 120V0C289.762 0 238.622 20.345 199.334 53.9392L277.319 145.144ZM345.5 120C403.49 120 450.5 167.01 450.5 225H570.5C570.5 100.736 469.764 0 345.5 0V120ZM450.5 225C450.5 226.078 450.484 227.149 450.452 228.215L570.399 231.786C570.466 229.529 570.5 227.267 570.5 225H450.5ZM510.45 290L510.525 290L510.475 170L510.401 170L510.45 290ZM510.5 290C521.546 290 530.5 298.954 530.5 310H650.5C650.5 232.68 587.82 170 510.5 170V290ZM530.5 310C530.5 321.046 521.546 330 510.5 330V450C587.82 450 650.5 387.32 650.5 310H530.5ZM510.5 330C510.51 330 510.516 330 510.516 330C510.517 330 510.516 330 510.514 330C510.512 330 510.509 330 510.505 330C510.498 330 510.483 330 510.466 330C510.449 330 510.426 330 510.4 330V450C510.39 450 510.384 450 510.384 450C510.383 450 510.384 450 510.386 450C510.388 450 510.391 450 510.395 450C510.402 450 510.417 450 510.434 450C510.451 450 510.474 450 510.5 450V330ZM510.4 330L345.5 330L345.5 450L510.4 450L510.4 330ZM345.5 330L180.5 330L180.5 450L345.5 450L345.5 330Z" fill="url(#paint0_radial_366_350)" mask="url(#path-1-outside-1_366_350)"/>
</g>
<path d="M869.78 339.7C844.58 339.7 825.54 333.12 812.66 319.96C799.78 306.8 793.34 287.06 793.34 260.74V162.88H752.6V123.4H793.34V69.22L845.84 55.78V123.4H902.54V162.88H845.84V257.38C845.84 271.94 848.64 282.16 854.24 288.04C859.84 293.92 867.54 296.86 877.34 296.86C882.66 296.86 887.14 296.44 890.78 295.6C894.7 294.76 898.48 293.64 902.12 292.24V333.82C897.36 335.78 892.04 337.18 886.16 338.02C880.56 339.14 875.1 339.7 869.78 339.7ZM912.082 430.84L899.902 389.26C913.062 386.46 924.122 383.24 933.082 379.6C942.042 375.96 949.462 371.2 955.342 365.32C961.222 359.44 966.122 351.88 970.042 342.64L980.542 317.86L979.282 338.44L886.882 123.4H942.742L1009.1 288.88H996.922L1063.7 123.4H1116.62L1020.02 347.26C1013.58 362.38 1006.58 374.84 999.022 384.64C991.462 394.72 983.342 402.7 974.662 408.58C965.982 414.74 956.462 419.5 946.102 422.86C935.742 426.22 924.402 428.88 912.082 430.84ZM1119.13 426.22V176.32C1119.13 167.64 1118.85 158.82 1118.29 149.86C1117.73 140.9 1116.89 132.08 1115.77 123.4H1166.59L1171.21 167.92H1166.59C1170.79 153.08 1179.61 141.32 1193.05 132.64C1206.77 123.68 1222.59 119.2 1240.51 119.2C1259.27 119.2 1275.65 123.68 1289.65 132.64C1303.65 141.32 1314.57 153.92 1322.41 170.44C1330.25 186.68 1334.17 206.28 1334.17 229.24C1334.17 252.2 1330.25 271.94 1322.41 288.46C1314.57 304.98 1303.65 317.72 1289.65 326.68C1275.65 335.36 1259.27 339.7 1240.51 339.7C1222.87 339.7 1207.33 335.36 1193.89 326.68C1180.45 318 1171.49 306.38 1167.01 291.82H1171.63V426.22H1119.13ZM1225.81 299.38C1242.61 299.38 1256.05 293.64 1266.13 282.16C1276.21 270.4 1281.25 252.76 1281.25 229.24C1281.25 205.72 1276.21 188.22 1266.13 176.74C1256.05 165.26 1242.61 159.52 1225.81 159.52C1209.29 159.52 1195.99 165.26 1185.91 176.74C1175.83 188.22 1170.79 205.72 1170.79 229.24C1170.79 252.76 1175.83 270.4 1185.91 282.16C1195.99 293.64 1209.29 299.38 1225.81 299.38ZM1456.86 339.7C1421.3 339.7 1393.44 329.9 1373.28 310.3C1353.12 290.7 1343.04 263.82 1343.04 229.66C1343.04 207.54 1347.38 188.22 1356.06 171.7C1364.74 155.18 1376.78 142.3 1392.18 133.06C1407.86 123.82 1426.06 119.2 1446.78 119.2C1467.22 119.2 1484.3 123.54 1498.02 132.22C1511.74 140.9 1522.1 153.08 1529.1 168.76C1536.38 184.44 1540.02 202.78 1540.02 223.78V237.64H1385.46V209.92H1502.64L1495.5 215.8C1495.5 196.2 1491.3 181.22 1482.9 170.86C1474.78 160.5 1462.88 155.32 1447.2 155.32C1429.84 155.32 1416.4 161.48 1406.88 173.8C1397.64 186.12 1393.02 203.34 1393.02 225.46V230.92C1393.02 253.88 1398.62 271.1 1409.82 282.58C1421.3 293.78 1437.4 299.38 1458.12 299.38C1470.16 299.38 1481.36 297.84 1491.72 294.76C1502.36 291.4 1512.44 286.08 1521.96 278.8L1537.5 314.08C1527.42 322.2 1515.38 328.5 1501.38 332.98C1487.38 337.46 1472.54 339.7 1456.86 339.7ZM1641.6 339.7C1623.12 339.7 1606.74 335.36 1592.46 326.68C1578.46 317.72 1567.54 304.98 1559.7 288.46C1551.86 271.94 1547.94 252.2 1547.94 229.24C1547.94 206.28 1551.86 186.68 1559.7 170.44C1567.54 153.92 1578.46 141.32 1592.46 132.64C1606.74 123.68 1623.12 119.2 1641.6 119.2C1659.24 119.2 1674.78 123.54 1688.22 132.22C1701.94 140.62 1711.04 152.1 1715.52 166.66H1710.06V26.38H1762.56V335.5H1710.9V290.56H1715.94C1711.46 305.68 1702.36 317.72 1688.64 326.68C1675.2 335.36 1659.52 339.7 1641.6 339.7ZM1656.3 299.38C1672.82 299.38 1686.12 293.64 1696.2 282.16C1706.28 270.4 1711.32 252.76 1711.32 229.24C1711.32 205.72 1706.28 188.22 1696.2 176.74C1686.12 165.26 1672.82 159.52 1656.3 159.52C1639.78 159.52 1626.34 165.26 1615.98 176.74C1605.9 188.22 1600.86 205.72 1600.86 229.24C1600.86 252.76 1605.9 270.4 1615.98 282.16C1626.34 293.64 1639.78 299.38 1656.3 299.38ZM1794.1 335.5V177.58C1794.1 168.62 1793.82 159.52 1793.26 150.28C1792.98 141.04 1792.28 132.08 1791.16 123.4H1841.98L1847.86 181.36H1839.46C1842.26 167.36 1846.88 155.74 1853.32 146.5C1860.04 137.26 1868.16 130.4 1877.68 125.92C1887.2 121.44 1897.56 119.2 1908.76 119.2C1913.8 119.2 1917.86 119.48 1920.94 120.04C1924.02 120.32 1927.1 121.02 1930.18 122.14L1929.76 168.34C1924.44 166.1 1919.82 164.7 1915.9 164.14C1912.26 163.58 1907.64 163.3 1902.04 163.3C1890 163.3 1879.78 165.82 1871.38 170.86C1863.26 175.9 1857.1 182.9 1852.9 191.86C1848.98 200.82 1847.02 211.04 1847.02 222.52V335.5H1794.1ZM2033.41 339.7C1997.85 339.7 1969.99 329.9 1949.83 310.3C1929.67 290.7 1919.59 263.82 1919.59 229.66C1919.59 207.54 1923.93 188.22 1932.61 171.7C1941.29 155.18 1953.33 142.3 1968.73 133.06C1984.41 123.82 2002.61 119.2 2023.33 119.2C2043.77 119.2 2060.85 123.54 2074.57 132.22C2088.29 140.9 2098.65 153.08 2105.65 168.76C2112.93 184.44 2116.57 202.78 2116.57 223.78V237.64H1962.01V209.92H2079.19L2072.05 215.8C2072.05 196.2 2067.85 181.22 2059.45 170.86C2051.33 160.5 2039.43 155.32 2023.75 155.32C2006.39 155.32 1992.95 161.48 1983.43 173.8C1974.19 186.12 1969.57 203.34 1969.57 225.46V230.92C1969.57 253.88 1975.17 271.1 1986.37 282.58C1997.85 293.78 2013.95 299.38 2034.67 299.38C2046.71 299.38 2057.91 297.84 2068.27 294.76C2078.91 291.4 2088.99 286.08 2098.51 278.8L2114.05 314.08C2103.97 322.2 2091.93 328.5 2077.93 332.98C2063.93 337.46 2049.09 339.7 2033.41 339.7ZM2217.72 339.7C2199.24 339.7 2183 335.36 2169 326.68C2155 317.72 2144.08 304.98 2136.24 288.46C2128.4 271.94 2124.48 252.2 2124.48 229.24C2124.48 206.28 2128.4 186.68 2136.24 170.44C2144.08 153.92 2155 141.32 2169 132.64C2183 123.68 2199.24 119.2 2217.72 119.2C2235.64 119.2 2251.32 123.68 2264.76 132.64C2278.48 141.32 2287.58 153.08 2292.06 167.92H2287.44L2292.06 123.4H2342.46C2341.62 132.08 2340.78 140.9 2339.94 149.86C2339.38 158.82 2339.1 167.64 2339.1 176.32V335.5H2287.02L2286.6 291.82H2291.64C2287.16 306.38 2278.06 318 2264.34 326.68C2250.62 335.36 2235.08 339.7 2217.72 339.7ZM2232.42 299.38C2248.94 299.38 2262.24 293.64 2272.32 282.16C2282.4 270.4 2287.44 252.76 2287.44 229.24C2287.44 205.72 2282.4 188.22 2272.32 176.74C2262.24 165.26 2248.94 159.52 2232.42 159.52C2215.9 159.52 2202.6 165.26 2192.52 176.74C2182.44 188.22 2177.4 205.72 2177.4 229.24C2177.4 252.76 2182.3 270.4 2192.1 282.16C2202.18 293.64 2215.62 299.38 2232.42 299.38ZM2371.07 335.5V176.32C2371.07 167.64 2370.79 158.82 2370.23 149.86C2369.67 140.9 2368.83 132.08 2367.71 123.4H2418.53L2422.73 165.4H2417.69C2423.57 150.84 2432.53 139.5 2444.57 131.38C2456.89 123.26 2471.45 119.2 2488.25 119.2C2505.05 119.2 2518.91 123.26 2529.83 131.38C2541.03 139.22 2548.87 151.54 2553.35 168.34H2546.63C2552.51 153.22 2562.17 141.32 2575.61 132.64C2589.05 123.68 2604.45 119.2 2621.81 119.2C2645.61 119.2 2663.39 126.2 2675.15 140.2C2686.91 154.2 2692.79 176.04 2692.79 205.72V335.5H2640.29V207.82C2640.29 191.02 2637.49 178.98 2631.89 171.7C2626.29 164.14 2617.33 160.36 2605.01 160.36C2590.45 160.36 2578.97 165.54 2570.57 175.9C2562.17 185.98 2557.97 199.7 2557.97 217.06V335.5H2505.47V207.82C2505.47 191.02 2502.67 178.98 2497.07 171.7C2491.47 164.14 2482.51 160.36 2470.19 160.36C2455.63 160.36 2444.15 165.54 2435.75 175.9C2427.63 185.98 2423.57 199.7 2423.57 217.06V335.5H2371.07Z" fill="white"/>
<defs>
<radialGradient id="paint0_radial_366_350" cx="0" cy="0" r="1" gradientUnits="userSpaceOnUse" gradientTransform="translate(181.771 470) rotate(-40.3711) scale(536.484 1915.51)">
<stop stop-color="#56FFE1"/>
<stop offset="0.338542" stop-color="#FC01D8"/>
<stop offset="0.677083" stop-color="#FF006C"/>
<stop offset="1" stop-color="#FFC300"/>
</radialGradient>
<clipPath id="clip0_366_350">
<rect width="650" height="450" fill="white" transform="translate(0.5)"/>
</clipPath>
</defs>
</svg>
