<svg width="164" height="36" viewBox="0 0 164 36" fill="none" xmlns="http://www.w3.org/2000/svg">
<g clip-path="url(#clip0_552_100361)">
<path d="M65.484 20.4476L62.6432 12.7897C62.5272 12.4765 62.0842 12.4765 61.968 12.7897L59.1276 20.4481C59.1075 20.5026 59.1008 20.5611 59.1081 20.6187C59.1154 20.6762 59.1366 20.7312 59.1698 20.7788C59.2029 20.8265 59.2471 20.8654 59.2986 20.8923C59.3501 20.9191 59.4073 20.9332 59.4653 20.9332H65.1463C65.2044 20.9331 65.2616 20.9191 65.3131 20.8922C65.3645 20.8653 65.4087 20.8264 65.4419 20.7787C65.475 20.731 65.4961 20.676 65.5034 20.6184C65.5107 20.5608 65.5042 20.5021 65.484 20.4476ZM66.7964 24.752H57.8156C57.7421 24.7521 57.6704 24.7745 57.61 24.8165C57.5497 24.8585 57.5037 24.9179 57.4781 24.9868L55.71 29.7517C55.6845 29.8206 55.6384 29.88 55.5781 29.922C55.5178 29.9639 55.4461 29.9864 55.3726 29.9864H51.48C51.4212 29.9864 51.3632 29.972 51.3113 29.9444C51.2593 29.9168 51.2149 29.8769 51.1819 29.8281C51.149 29.7794 51.1284 29.7233 51.1222 29.6648C51.1159 29.6063 51.1241 29.5471 51.146 29.4925L60.1078 7.16724C60.1346 7.10056 60.1808 7.04343 60.2404 7.00323C60.3 6.96302 60.3702 6.94157 60.4421 6.94164H64.1693C64.3162 6.94164 64.4484 7.03092 64.5034 7.16724L73.465 29.4923C73.487 29.5469 73.4952 29.6061 73.489 29.6647C73.4828 29.7233 73.4623 29.7794 73.4293 29.8282C73.3963 29.877 73.3519 29.917 73.2998 29.9446C73.2478 29.9723 73.1898 29.9867 73.1309 29.9867H69.2391C69.1656 29.9866 69.0938 29.9641 69.0335 29.9221C68.9732 29.8801 68.9272 29.8206 68.9016 29.7517L67.1333 24.9868C67.1077 24.9179 67.0617 24.8585 67.0014 24.8165C66.9411 24.7745 66.8698 24.7521 66.7964 24.752ZM75.2888 14.7767H78.618C78.7135 14.7767 78.8051 14.8146 78.8726 14.8821C78.9401 14.9496 78.978 15.0412 78.978 15.1367V29.6264C78.978 29.7219 78.9401 29.8135 78.8726 29.881C78.8051 29.9485 78.7135 29.9864 78.618 29.9864H75.2888C75.1933 29.9864 75.1017 29.9485 75.0342 29.881C74.9667 29.8135 74.9288 29.7219 74.9288 29.6264V15.1364C74.9288 15.041 74.9667 14.9494 75.0342 14.8819C75.1017 14.8144 75.1933 14.7767 75.2888 14.7767ZM91.1201 18.3013C91.1201 18.3968 91.0822 18.4884 91.0147 18.5559C90.9472 18.6234 90.8556 18.6613 90.7601 18.6613H90.6593C89.0132 18.6613 87.8057 19.0564 87.0377 19.8464C86.2692 20.6365 85.8857 21.9426 85.8857 23.7642V29.6264C85.8857 29.7219 85.8478 29.8135 85.7803 29.881C85.7128 29.9485 85.6212 29.9864 85.5257 29.9864H82.2291C82.1336 29.9864 82.042 29.9485 81.9745 29.881C81.907 29.8135 81.8691 29.7219 81.8691 29.6264V15.1364C81.8691 15.041 81.907 14.9494 81.9745 14.8819C82.042 14.8144 82.1336 14.7764 82.2291 14.7764H85.4926C85.5881 14.7764 85.6796 14.8144 85.7472 14.8819C85.8147 14.9494 85.8526 15.041 85.8526 15.1364V18.0025H85.9186C86.3136 16.8174 86.9391 15.9071 87.7954 15.2701C88.651 14.6339 89.7046 14.3154 90.9555 14.3154H91.1201V18.3013ZM100.223 18.1674C100.128 18.1674 100.036 18.2053 99.9688 18.2728C99.9012 18.3404 99.8633 18.4319 99.8633 18.5274V24.5543C99.8633 25.1689 99.9833 25.6079 100.225 25.8712C100.466 26.1344 100.884 26.2662 101.476 26.2662H101.808C101.903 26.2662 101.995 26.3041 102.062 26.3716C102.13 26.4392 102.168 26.5307 102.168 26.6262V29.6591C102.168 29.7546 102.13 29.8461 102.062 29.9136C101.995 29.9812 101.903 30.0191 101.808 30.0191H100.39C98.9192 30.0191 97.789 29.6406 96.9989 28.8834C96.2086 28.1262 95.8135 27.0018 95.8135 25.509V18.5274C95.8135 18.4319 95.7756 18.3404 95.7081 18.2728C95.6406 18.2053 95.549 18.1674 95.4535 18.1674H93.3754C93.2799 18.1674 93.1883 18.1295 93.1208 18.062C93.0533 17.9944 93.0154 17.9029 93.0154 17.8074V15.1364C93.0154 15.041 93.0533 14.9494 93.1208 14.8819C93.1883 14.8144 93.2799 14.7764 93.3754 14.7764H95.4538C95.5493 14.7764 95.6408 14.7385 95.7084 14.671C95.7759 14.6035 95.8138 14.5119 95.8138 14.4164V9.04596C95.8138 8.95048 95.8517 8.85891 95.9192 8.7914C95.9867 8.72389 96.0783 8.68596 96.1738 8.68596H99.5031C99.5986 8.68596 99.6901 8.72389 99.7576 8.7914C99.8251 8.85891 99.8631 8.95048 99.8631 9.04596V14.4164C99.8631 14.5119 99.901 14.6035 99.9685 14.671C100.036 14.7385 100.128 14.7764 100.223 14.7764H102.631C102.726 14.7764 102.818 14.8144 102.885 14.8819C102.953 14.9494 102.991 15.041 102.991 15.1364V17.8076C102.991 17.9031 102.953 17.9947 102.885 18.0622C102.818 18.1297 102.726 18.1676 102.631 18.1676L100.223 18.1674ZM115.468 25.4761C116.226 24.686 116.604 23.6545 116.604 22.3813C116.604 21.1088 116.226 20.0768 115.468 19.2868C114.711 18.4967 113.718 18.1016 112.489 18.1016C111.259 18.1016 110.267 18.4967 109.509 19.2868C108.752 20.0768 108.374 21.1088 108.374 22.3813C108.374 23.6545 108.752 24.686 109.509 25.4761C110.267 26.2662 111.259 26.6612 112.489 26.6612C113.718 26.6612 114.711 26.2662 115.468 25.4761ZM107.781 29.5254C106.662 28.8892 105.778 27.9616 105.131 26.7436C104.483 25.5256 104.16 24.0716 104.16 22.3813C104.16 20.6917 104.483 19.2373 105.131 18.0193C105.778 16.8013 106.662 15.8744 107.781 15.2375C108.901 14.601 110.129 14.2828 111.468 14.2828C112.653 14.2828 113.668 14.5132 114.514 14.974C115.358 15.4348 116.033 16.0825 116.538 16.9165H116.604V15.1364C116.604 15.041 116.642 14.9494 116.709 14.8819C116.777 14.8144 116.869 14.7764 116.964 14.7764H120.26C120.356 14.7764 120.447 14.8144 120.515 14.8819C120.582 14.9494 120.62 15.041 120.62 15.1364V29.6262C120.62 29.7217 120.582 29.8132 120.515 29.8808C120.447 29.9483 120.356 29.9862 120.26 29.9862H116.964C116.869 29.9862 116.777 29.9483 116.709 29.8808C116.642 29.8132 116.604 29.7217 116.604 29.6262V27.8464H116.538C116.033 28.6808 115.358 29.3279 114.514 29.7887C113.668 30.2495 112.654 30.4799 111.468 30.4799C110.129 30.4799 108.901 30.1616 107.781 29.5254ZM134.33 25.4761C135.087 24.686 135.466 23.6545 135.466 22.3813C135.466 21.1088 135.087 20.0768 134.33 19.2868C133.573 18.4967 132.58 18.1016 131.351 18.1016C130.121 18.1016 129.128 18.4967 128.371 19.2868C127.614 20.0768 127.235 21.1088 127.235 22.3813C127.235 23.6545 127.614 24.686 128.371 25.4761C129.128 26.2662 130.121 26.6612 131.351 26.6612C132.58 26.6612 133.573 26.2662 134.33 25.4761ZM129.326 29.7887C128.481 29.3279 127.806 28.6808 127.301 27.8464H127.235V29.6262C127.235 29.7217 127.197 29.8132 127.13 29.8808C127.062 29.9483 126.971 29.9862 126.875 29.9862H123.546C123.451 29.9862 123.359 29.9483 123.291 29.8808C123.224 29.8132 123.186 29.7217 123.186 29.6262V7.30092C123.186 7.20544 123.224 7.11387 123.291 7.04636C123.359 6.97885 123.451 6.94092 123.546 6.94092H126.875C126.971 6.94092 127.062 6.97885 127.13 7.04636C127.197 7.11387 127.235 7.20544 127.235 7.30092V16.9163H127.301C127.806 16.0823 128.481 15.4348 129.326 14.974C130.171 14.5129 131.186 14.2825 132.371 14.2825C133.71 14.2825 134.939 14.6008 136.058 15.2372C137.178 15.8742 138.061 16.8011 138.709 18.0188C139.356 19.2376 139.68 20.692 139.68 22.3816C139.68 24.0719 139.356 25.5256 138.709 26.7438C138.061 27.9618 137.178 28.8894 136.059 29.5254C134.939 30.1619 133.71 30.4804 132.372 30.4804C131.186 30.4804 130.171 30.2497 129.326 29.7887ZM145.289 29.9864H141.96C141.865 29.9864 141.773 29.9485 141.705 29.881C141.638 29.8135 141.6 29.7219 141.6 29.6264V7.30164C141.6 7.20616 141.638 7.11459 141.705 7.04708C141.773 6.97957 141.865 6.94164 141.96 6.94164H145.289C145.385 6.94164 145.476 6.97957 145.544 7.04708C145.611 7.11459 145.649 7.20616 145.649 7.30164V29.6264C145.649 29.7219 145.611 29.8135 145.544 29.881C145.476 29.9485 145.385 29.9864 145.289 29.9864ZM153.143 18.2994C152.591 18.73 152.218 19.3516 152.025 20.1647C151.972 20.3888 152.147 20.6039 152.377 20.6039H158.713C158.933 20.6039 159.106 20.4071 159.07 20.1901C158.944 19.4209 158.614 18.8077 158.081 18.3488C157.455 17.8112 156.637 17.5424 155.628 17.5424C154.618 17.5424 153.79 17.7947 153.143 18.2994ZM161.258 16.4063C162.553 17.8223 163.2 19.8251 163.2 22.4144V22.8445C163.2 22.94 163.162 23.0316 163.095 23.0991C163.027 23.1666 162.936 23.2045 162.84 23.2045H152.255C152.202 23.2046 152.15 23.2162 152.102 23.2386C152.055 23.2609 152.012 23.2933 151.978 23.3337C151.945 23.374 151.92 23.4213 151.906 23.4722C151.892 23.5231 151.89 23.5764 151.899 23.6284C152.068 24.5903 152.493 25.3544 153.175 25.9206C153.954 26.5686 154.937 26.8919 156.122 26.8919C157.652 26.8919 159.068 26.2948 160.37 25.1003C160.53 24.9544 160.782 24.9853 160.905 25.1627L162.524 27.4859C162.574 27.5581 162.597 27.6465 162.587 27.7342C162.576 27.8219 162.534 27.9028 162.469 27.9616C161.674 28.657 160.791 29.2438 159.842 29.7066C158.788 30.2221 157.548 30.4804 156.122 30.4804C154.476 30.4804 153.038 30.1453 151.809 29.4762C150.58 28.8071 149.625 27.8634 148.945 26.6449C148.265 25.4269 147.925 24.0169 147.925 22.4144C147.925 20.8127 148.254 19.3972 148.912 18.1676C149.57 16.9388 150.492 15.9841 151.678 15.3035C152.863 14.6236 154.245 14.283 155.826 14.283C158.151 14.283 159.962 14.991 161.258 16.4063ZM79.4129 9.41988C79.4129 10.7778 78.312 11.8787 76.9539 11.8787C75.5955 11.8787 74.4946 10.7778 74.4946 9.41964C74.4946 8.06148 75.5957 6.9606 76.9539 6.9606C78.312 6.9606 79.4129 8.06172 79.4129 9.41988Z" fill="white"/>
<path d="M18.96 0.447961L3.12963 6.99828C2.24931 7.3626 2.25843 8.61324 3.14427 8.96436L19.0407 15.2682C20.4374 15.8221 21.9928 15.8221 23.3895 15.2682L39.2861 8.96412C40.1717 8.61324 40.1813 7.36284 39.3005 6.99852L23.4706 0.447721C22.0264 -0.149891 20.404 -0.149891 18.9598 0.447721" fill="#FCB400"/>
<path d="M22.626 18.7103V34.4584C22.626 35.2072 23.3813 35.7203 24.0775 35.4443L41.7909 28.5688C41.9885 28.4905 42.158 28.3546 42.2774 28.1788C42.3968 28.003 42.4606 27.7954 42.4605 27.5829V11.835C42.4605 11.086 41.7053 10.5731 41.009 10.8491L23.2956 17.7246C23.0981 17.803 22.9286 17.9389 22.8092 18.1147C22.6898 18.2905 22.626 18.4978 22.626 18.7103Z" fill="#18BFFF"/>
<path d="M18.4891 19.5232L13.2322 22.0615L12.6984 22.3195L1.60128 27.6367C0.89808 27.976 0 27.4634 0 26.682V11.9013C0 11.6186 0.14496 11.3745 0.33936 11.1909C0.419112 11.1115 0.50959 11.0436 0.60816 10.9893C0.87312 10.8302 1.25136 10.7877 1.57296 10.9149L18.4008 17.5826C19.2562 17.922 19.3234 19.1203 18.4891 19.5232Z" fill="#F82B60"/>
<path d="M18.4896 19.5232L13.2326 22.0615L0.339844 11.1907C0.419611 11.1113 0.510089 11.0436 0.608644 10.9893C0.873604 10.8302 1.25184 10.7877 1.57344 10.9149L18.4013 17.5826C19.2566 17.922 19.3238 19.1203 18.4896 19.5232Z" fill="black" fill-opacity="0.25"/>
</g>
<defs>
<clipPath id="clip0_552_100361">
<rect width="163.2" height="35.52" fill="white"/>
</clipPath>
</defs>
</svg>
