<svg width="1595" height="1137" viewBox="0 0 1595 1137" fill="none" xmlns="http://www.w3.org/2000/svg">
<mask id="mask0_178_42191" style="mask-type:alpha" maskUnits="userSpaceOnUse" x="42" y="0" width="1513" height="1137">
<rect x="42" width="1513" height="1137" rx="50" fill="url(#paint0_radial_178_42191)"/>
</mask>
<g mask="url(#mask0_178_42191)">
<line x1="116" y1="2.18557e-08" x2="116" y2="894" stroke="#DED5EC" stroke-opacity="0.4"/>
<line x1="213" y1="2.18557e-08" x2="213" y2="894" stroke="#DED5EC" stroke-opacity="0.4"/>
<line x1="310" y1="2.18557e-08" x2="310" y2="894" stroke="#DED5EC" stroke-opacity="0.4"/>
<line x1="407" y1="2.18557e-08" x2="407" y2="894" stroke="#DED5EC" stroke-opacity="0.4"/>
<line x1="504" y1="2.18557e-08" x2="504" y2="894" stroke="#DED5EC" stroke-opacity="0.4"/>
<line x1="601" y1="2.18557e-08" x2="601" y2="894" stroke="#DED5EC" stroke-opacity="0.4"/>
<line x1="698" y1="2.18557e-08" x2="698" y2="894" stroke="#DED5EC" stroke-opacity="0.4"/>
<line x1="795" y1="2.18557e-08" x2="795" y2="894" stroke="#DED5EC" stroke-opacity="0.4"/>
<line x1="892" y1="2.18557e-08" x2="892" y2="894" stroke="#DED5EC" stroke-opacity="0.4"/>
<line x1="989" y1="2.18557e-08" x2="989" y2="894" stroke="#DED5EC" stroke-opacity="0.4"/>
<line x1="1086" y1="2.18557e-08" x2="1086" y2="894" stroke="#DED5EC" stroke-opacity="0.4"/>
<line x1="1183" y1="2.18557e-08" x2="1183" y2="894" stroke="#DED5EC" stroke-opacity="0.4"/>
<line x1="1280" y1="2.18557e-08" x2="1280" y2="894" stroke="#DED5EC" stroke-opacity="0.4"/>
<line x1="1377" y1="2.18557e-08" x2="1377" y2="894" stroke="#DED5EC" stroke-opacity="0.4"/>
<line x1="1474" y1="2.18557e-08" x2="1474" y2="894" stroke="#DED5EC" stroke-opacity="0.4"/>
<line x1="1595" y1="22" x2="0.000122027" y2="21.9999" stroke="#DED5EC" stroke-opacity="0.4"/>
<line x1="1595" y1="119" x2="0.000122027" y2="119" stroke="#DED5EC" stroke-opacity="0.4"/>
<line x1="1595" y1="216" x2="0.000122027" y2="216" stroke="#DED5EC" stroke-opacity="0.4"/>
<line x1="1595" y1="313" x2="0.000122027" y2="313" stroke="#DED5EC" stroke-opacity="0.4"/>
<line x1="1595" y1="410" x2="0.000122027" y2="410" stroke="#DED5EC" stroke-opacity="0.4"/>
<line x1="1595" y1="507" x2="0.000122027" y2="507" stroke="#DED5EC" stroke-opacity="0.4"/>
<line x1="1595" y1="604" x2="0.000122027" y2="604" stroke="#DED5EC" stroke-opacity="0.4"/>
<line x1="1595" y1="701" x2="0.000122027" y2="701" stroke="#DED5EC" stroke-opacity="0.4"/>
<line x1="1595" y1="798" x2="0.000122027" y2="798" stroke="#DED5EC" stroke-opacity="0.4"/>
<line x1="1595" y1="895" x2="0.000122027" y2="895" stroke="#DED5EC" stroke-opacity="0.4"/>
</g>
<defs>
<radialGradient id="paint0_radial_178_42191" cx="0" cy="0" r="1" gradientUnits="userSpaceOnUse" gradientTransform="translate(798.5 140.678) rotate(90) scale(565.605 626.574)">
<stop stop-color="#D9D9D9" stop-opacity="0.5"/>
<stop offset="1" stop-color="#D9D9D9" stop-opacity="0"/>
</radialGradient>
</defs>
</svg>