<svg width="883" height="183" viewBox="0 0 883 183" fill="none" xmlns="http://www.w3.org/2000/svg">
<g clip-path="url(#clip0_414_12156)">
<path d="M302.28 94.98V174.48C302.28 177.06 300.18 179.16 297.6 179.16H263.25C260.66 179.16 258.57 177.06 258.57 174.48V48.94C258.57 46.36 260.67 44.26 263.25 44.26H297.6C300.18 44.26 302.28 46.36 302.28 48.94V58.83C310.91 48.04 323.05 41.29 340.05 41.29C355.97 41.29 369.73 47.77 378.09 59.91C388.34 47.77 402.91 41.29 420.72 41.29C450.94 41.29 471.71 59.1 471.71 93.09V174.48C471.71 177.06 469.61 179.16 467.03 179.16H432.68C430.09 179.16 428 177.06 428 174.48V102.27C428 87.43 419.64 80.15 408.3 80.15C398.86 80.15 391.3 86.09 386.98 94.99V174.49C386.98 177.07 384.88 179.17 382.3 179.17H347.95C345.36 179.17 343.27 177.07 343.27 174.49V102.28C343.27 87.44 334.91 80.16 323.57 80.16C313.86 80.16 306.57 86.1 302.25 95" fill="white"/>
<path d="M529.16 181.86C503.8 181.86 482.48 165.13 482.48 139.23C482.48 115.49 498.13 104.42 527.27 96.8702L564.51 87.1602C563.43 78.2602 556.41 73.9402 545.08 73.9402C535.04 73.9402 527.82 77.7802 524.49 85.4602C523.56 87.6002 521.33 88.8602 519.05 88.3202L489.54 81.3002C486.82 80.6502 485.23 77.7502 486.2 75.1302C494.67 52.2102 518.21 40.2002 546.69 40.2002C585 40.2002 607.13 58.2802 607.13 90.1102V174.47C607.13 177.06 605.03 179.15 602.45 179.15H569.88C567.34 179.15 565.26 177.12 565.2 174.58L565.04 167.55L564.77 167.82C553.71 177.26 542.92 181.85 529.15 181.85M540.21 148.12C545.88 148.12 550.19 146.5 556.67 142.72L564.22 138.13L564.49 116.27L545.06 121.67C531.84 125.45 525.9 128.69 525.9 136.24C525.9 144.6 533.18 148.11 540.2 148.11" fill="white"/>
<path d="M676.92 115.49L663.7 127.63V174.48C663.7 177.07 661.6 179.16 659.02 179.16H625.48C622.89 179.16 620.8 177.06 620.8 174.48V4.68C620.8 2.1 622.9 0 625.48 0H659.02C661.6 0 663.7 2.1 663.7 4.68V81.49L702.83 45.49C703.69 44.7 704.83 44.25 706 44.25H747.41C751.69 44.25 753.72 49.51 750.57 52.39L710.39 89.04L756.21 172.22C757.93 175.34 755.67 179.16 752.11 179.16H712.96C711.22 179.16 709.61 178.19 708.81 176.64L676.93 115.48L676.92 115.49Z" fill="white"/>
<path d="M819.25 182.13C781.75 182.13 747.48 158.66 747.48 111.17C747.48 66.3805 780.4 40.4805 816.55 40.4805C852.7 40.4805 881.31 66.6505 882.38 107.93C882.5 112.29 882.57 115.33 882.61 117.49C882.65 120.11 880.54 122.23 877.93 122.23H790.651C792.001 138.42 804.95 148.67 821.41 148.67C833.12 148.67 842.721 143.8 849.451 135C850.941 133.05 853.69 132.6 855.73 133.97L877.531 148.57C879.711 150.03 880.251 152.99 878.781 155.16C867.101 172.35 847.84 182.13 819.26 182.13M791.47 95.7905H838.69C838.42 80.4105 827.09 73.6705 815.22 73.6705C804.16 73.6705 792.83 80.1505 791.48 95.7905" fill="white"/>
<mask id="mask0_414_12156" style="mask-type:luminance" maskUnits="userSpaceOnUse" x="151" y="44" width="44" height="135">
<path d="M156.04 44.3398H189.92C192.5 44.3398 194.6 46.4398 194.6 49.0198V174.09C194.6 176.67 192.5 178.77 189.92 178.77H156.04C153.46 178.77 151.36 176.67 151.36 174.09V49.0198C151.36 46.4398 153.46 44.3398 156.04 44.3398Z" fill="white"/>
</mask>
<g mask="url(#mask0_414_12156)">
<path d="M189.437 30.2982L107.734 60.4238L156.545 192.802L238.248 162.676L189.437 30.2982Z" fill="white"/>
</g>
<mask id="mask1_414_12156" style="mask-type:luminance" maskUnits="userSpaceOnUse" x="0" y="43" width="96" height="137">
<path d="M56.6602 45.9902L0.500208 157.74C-0.659792 160.05 0.270208 162.86 2.58021 164.02L32.8502 179.23C35.1602 180.39 37.9702 179.46 39.1302 177.15L95.2902 65.4002C96.4502 63.0902 95.5202 60.2802 93.2102 59.1202L62.9402 43.9102C62.2602 43.5702 61.5502 43.4102 60.8402 43.4102C59.1302 43.4102 57.4802 44.3502 56.6602 45.9902Z" fill="white"/>
</mask>
<g mask="url(#mask1_414_12156)">
<path d="M81.1595 8.04542L-50.5674 64.9941L14.6234 215.786L146.35 158.837L81.1595 8.04542Z" fill="white"/>
</g>
<mask id="mask2_414_12156" style="mask-type:luminance" maskUnits="userSpaceOnUse" x="79" y="42" width="68" height="139">
<path d="M103.9 46.3901L79.87 168.2C79.37 170.73 81.01 173.18 83.54 173.69L116.75 180.39C119.29 180.9 121.77 179.25 122.27 176.71L146.3 54.9001C146.8 52.3701 145.16 49.9201 142.63 49.4101L109.42 42.7101C109.11 42.6501 108.8 42.6201 108.49 42.6201C106.3 42.6201 104.34 44.1601 103.9 46.3901Z" fill="white"/>
</mask>
<g mask="url(#mask2_414_12156)">
<path d="M138.75 20.7624L34.5371 59.126L87.4204 202.781L191.633 164.418L138.75 20.7624Z" fill="white"/>
</g>
</g>
<defs>
<clipPath id="clip0_414_12156">
<rect width="882.62" height="182.13" fill="white"/>
</clipPath>
</defs>
</svg>
