<svg width="415" height="152" viewBox="0 0 415 152" fill="none" xmlns="http://www.w3.org/2000/svg">
<path fill-rule="evenodd" clip-rule="evenodd" d="M24.9996 27.0998C29.6996 30.8998 31.3996 30.5998 40.1996 29.9998L123.1 24.9998C124.9 24.9998 123.4 23.1998 122.8 22.9998L109 13.0998C106.4 11.0998 102.8 8.69977 96.0996 9.29977L15.8996 15.1998C12.9996 15.4998 12.3996 16.9998 13.5996 18.0998L24.9996 27.0998ZM29.9996 46.3998V133.6C29.9996 138.3 32.2996 140 37.5996 139.7L128.7 134.4C134 134.1 134.6 130.9 134.6 127.1V40.4998C134.6 36.6998 133.1 34.5998 129.9 34.8998L34.6996 40.4998C31.1996 40.7998 29.9996 42.5998 29.9996 46.3998ZM119.9 51.0998C120.5 53.6998 119.9 56.3998 117.3 56.6998L112.9 57.5998V122C109.1 124 105.6 125.2 102.6 125.2C97.8996 125.2 96.6996 123.7 93.1996 119.3L64.4996 74.1998V117.8L73.5996 119.8C73.5996 119.8 73.5996 125.1 66.2996 125.1L46.0996 126.3C45.4996 125.1 46.0996 122.2 48.0996 121.6L53.3996 120.1V62.4998L46.0996 61.8998C45.4996 59.2998 46.9996 55.4998 51.0996 55.1998L72.7996 53.6998L102.7 99.2998V58.9998L95.0996 58.0998C94.4996 54.8998 96.8996 52.4998 99.7996 52.1998L119.9 51.0998ZM9.19961 7.19976L92.6996 1.09976C102.9 0.199761 105.6 0.799763 112 5.49976L138.6 24.1998C143 27.3998 144.5 28.2998 144.5 31.7998V134.5C144.5 140.9 142.2 144.7 134 145.3L37.0996 151.2C30.8996 151.5 27.9996 150.6 24.7996 146.5L5.09961 121C1.59961 116.3 0.0996094 112.8 0.0996094 108.7V17.3998C0.0996094 12.0998 2.49961 7.79976 9.19961 7.19976Z" fill="white"/>
<path d="M188.5 107.35V67.6495H189.2L217.8 107.35H226.8V49.0495H216.8V88.6495H216.1L187.5 49.0495H178.5V107.35H188.5ZM255.1 108.25C268.3 108.25 276.4 99.6495 276.4 85.2495C276.4 70.9495 268.3 62.2495 255.1 62.2495C242 62.2495 233.8 70.9495 233.8 85.2495C233.9 99.6495 241.9 108.25 255.1 108.25ZM255.1 99.8495C248.1 99.8495 244.1 94.5495 244.1 85.2495C244.1 76.0495 248.1 70.6495 255.1 70.6495C262.1 70.6495 266.1 76.0495 266.1 85.2495C266.1 94.5495 262.1 99.8495 255.1 99.8495ZM285.5 52.3495V63.4495H278.5V71.4495H285.5V95.5495C285.5 104.15 289.5 107.55 299.7 107.55C301.6 107.55 303.5 107.35 305 107.05V99.2495C303.8 99.3495 303 99.4495 301.6 99.4495C297.4 99.4495 295.5 97.5495 295.5 93.1495V71.4495H305V63.4495H295.5V52.3495H285.5ZM311 107.35H321V63.1495H311V107.35ZM316 55.8495C319.3 55.8495 322 53.1495 322 49.8495C322 46.4495 319.3 43.7495 316 43.7495C312.7 43.7495 310 46.4495 310 49.8495C310 53.1495 312.7 55.8495 316 55.8495ZM348.4 108.25C361.6 108.25 369.7 99.6495 369.7 85.2495C369.7 70.9495 361.6 62.2495 348.4 62.2495C335.3 62.2495 327.1 70.9495 327.1 85.2495C327.1 99.6495 335.1 108.25 348.4 108.25ZM348.4 99.8495C341.4 99.8495 337.4 94.5495 337.4 85.2495C337.4 76.0495 341.4 70.6495 348.4 70.6495C355.3 70.6495 359.4 76.0495 359.4 85.2495C359.3 94.5495 355.3 99.8495 348.4 99.8495ZM375.6 107.35H385.6V81.6495C385.6 75.1495 389.4 71.0495 395.3 71.0495C401.4 71.0495 404.2 74.4495 404.2 81.1495V107.35H414.2V78.7495C414.2 68.1495 408.8 62.2495 399 62.2495C392.4 62.2495 388 65.2495 385.9 70.2495H385.2V63.1495H375.5C375.6 63.1495 375.6 107.35 375.6 107.35Z" fill="white"/>
</svg>
